<?xml version="1.0" encoding="UTF-8" standalone="no"?>
<!-- Created with Inkscape (http://www.inkscape.org/) -->

<svg
   version="1.1"
   id="svg6616"
   width="167.754"
   height="60.151821"
   viewBox="0 0 167.75401 60.15182"
   sodipodi:docname="handballapp.svg"
   inkscape:version="1.1.2 (b8e25be833, 2022-02-05)"
   xmlns:inkscape="http://www.inkscape.org/namespaces/inkscape"
   xmlns:sodipodi="http://sodipodi.sourceforge.net/DTD/sodipodi-0.dtd"
   xmlns="http://www.w3.org/2000/svg"
   xmlns:svg="http://www.w3.org/2000/svg">
  <defs
     id="defs6620">
    <clipPath
       clipPathUnits="userSpaceOnUse"
       id="clipPath6942">
      <rect
         style="fill:none"
         id="rect6944"
         width="457.21924"
         height="161.09627"
         x="16.04278"
         y="165.10695" />
    </clipPath>
  </defs>
  <sodipodi:namedview
     id="namedview6618"
     pagecolor="#ffffff"
     bordercolor="#666666"
     borderopacity="1.0"
     inkscape:pageshadow="2"
     inkscape:pageopacity="0.0"
     inkscape:pagecheckerboard="0"
     showgrid="false"
     fit-margin-top="0"
     fit-margin-left="0"
     fit-margin-right="0"
     fit-margin-bottom="0"
     inkscape:zoom="1.496"
     inkscape:cx="216.91176"
     inkscape:cy="36.764706"
     inkscape:window-width="1920"
     inkscape:window-height="986"
     inkscape:window-x="-11"
     inkscape:window-y="-11"
     inkscape:window-maximized="1"
     inkscape:current-layer="g6622" />
  <g
     inkscape:groupmode="layer"
     inkscape:label="Image"
     id="g6622"
     transform="translate(-32.65711,-212.84818)">
    <path
       style="fill:#000000;stroke-width:0.406871"
       d="m 32.65763,271.56715 c -0.0063,-2.19072 0.810946,-16.20195 1.006874,-17.26406 0.157072,-0.85146 0.411017,-0.9591 2.262524,-0.9591 h 2.085597 l -0.205946,3.62331 -0.205944,3.62333 h 1.746517 1.746515 l 0.264097,-3.47591 c 0.145253,-1.91173 0.355456,-3.63814 0.467115,-3.83644 0.111652,-0.19832 1.09348,-0.36057 2.181824,-0.36057 h 1.978804 l -0.252535,5.43499 c -0.138897,2.98923 -0.253248,7.40116 -0.254111,9.80427 l -0.0018,4.3693 H 43.14701 40.81686 v -3.83646 c 0,-4.20203 -0.146472,-4.40251 -2.499047,-3.42074 -0.961813,0.40139 -0.996181,0.5411 -0.996181,4.0496 v 3.63387 H 34.991554 32.66141 l -0.0043,-1.38539 z m 14.52368,0.77474 c -0.274161,-0.78422 1.372208,-6.7362 3.644704,-13.17634 1.908231,-5.40783 2.25704,-5.82156 4.907957,-5.82156 1.4657,0 2.27636,0.83901 2.883031,2.98391 0.421753,1.49108 2.783082,15.20102 2.783082,16.15867 0,0.35086 -0.74641,0.46763 -2.427246,0.37975 l -2.427243,-0.12688 -0.121399,-1.85606 -0.121399,-1.85607 -1.820394,0.29904 c -2.303797,0.37847 -2.266055,0.3472 -2.570689,2.12956 -0.255577,1.49538 -0.257632,1.49666 -2.386359,1.49666 -1.490975,0 -2.194647,-0.18331 -2.344053,-0.61064 z m 12.33437,-2.34428 c -0.278333,-1.49375 -1.222475,-2.35502 -1.222475,-1.11519 0,0.67449 1.160834,2.93808 1.382124,2.69514 0.06155,-0.0675 -0.01057,-0.7785 -0.159649,-1.57995 z m -6.283022,-6.20993 c 0,-0.23444 -0.169408,-0.13848 -0.376468,0.21313 -0.207053,0.35167 -0.376462,0.83122 -0.376462,1.06567 0,0.23446 0.169409,0.13848 0.376462,-0.21313 0.20706,-0.35168 0.376468,-0.83124 0.376468,-1.06567 z m 2.296092,0.10662 c -0.02526,-0.52751 -0.163178,-1.53457 -0.306451,-2.23793 -0.258637,-1.26967 -0.265258,-1.26378 -0.924954,0.82191 -0.365438,1.15541 -0.664435,2.16248 -0.664435,2.23795 0,0.0755 0.436902,0.13726 0.970894,0.13726 0.761561,0 0.96099,-0.2068 0.924946,-0.95912 z m 7.040294,7.48105 c 0.0057,-2.18678 0.712121,-13.48547 1.001594,-16.00652 l 0.232467,-2.02477 h 1.909159 c 2.313143,0 2.80196,0.52305 4.273034,4.57289 1.181632,3.25301 1.419119,2.98655 1.60627,-1.80213 l 0.09998,-2.55763 h 1.941786 1.94184 l -0.142611,4.90214 c -0.0784,2.69618 -0.253184,7.01218 -0.388358,9.59114 l -0.245743,4.689 -1.824183,0.12896 c -2.128617,0.15059 -2.086973,0.21208 -4.231413,-6.24406 l -1.323234,-3.98366 -0.19421,5.04936 -0.1941,5.04935 -2.233203,0.12775 -2.233004,0.12791 0.0044,-1.6198 z m 14.186752,-2.57889 c 0.134993,-2.28591 0.361451,-6.45238 0.503236,-9.25886 l 0.257934,-5.10266 1.553416,-0.51269 c 2.544577,-0.83979 6.015341,-0.70776 7.499242,0.28527 1.911691,1.27931 2.523872,3.2971 2.322462,7.65511 -0.190451,4.12013 -0.996193,6.29125 -3.210971,8.65223 -1.635551,1.7435 -3.563753,2.43775 -6.770662,2.43775 h -2.399971 z m 5.639825,-1.39965 c 1.686017,-0.99036 3.010054,-5.6847 2.265072,-8.03033 -0.398203,-1.25399 -0.565803,-1.36724 -1.849062,-1.24962 l -1.411128,0.1293 -0.227229,3.62331 c -0.125069,1.99283 -0.276826,3.81515 -0.337321,4.04959 -0.223126,0.86508 -0.0065,1.91823 0.395913,1.91823 0.227687,0 0.751383,-0.19823 1.163755,-0.44051 z m 7.748104,3.95726 c 0.0032,-0.87918 0.261381,-4.8595 0.574602,-8.84515 0.313147,-3.98565 0.573035,-7.45675 0.577371,-7.71351 0.0051,-0.27114 1.623117,-0.68176 3.859961,-0.97932 4.381186,-0.58283 6.038331,-0.16046 7.234801,1.84379 0.91794,1.53776 0.60173,5.0174 -0.58164,6.40001 l -0.86882,1.01512 0.86657,1.28646 c 1.74549,2.59147 0.22046,7.27084 -2.655403,8.14753 -0.79177,0.24136 -3.143505,0.43992 -5.226055,0.44124 l -3.786594,0.002 z m 3.755393,-1.03902 c -0.123983,-0.34006 -0.216016,-0.23906 -0.234637,0.25753 -0.01704,0.44936 0.07492,0.70114 0.203963,0.55948 0.129047,-0.14159 0.142875,-0.50931 0.03071,-0.81701 z m 3.557581,-3.51329 c 0.193078,-1.099 -0.508017,-1.67178 -1.658497,-1.35487 -0.834285,0.22986 -0.999317,0.52055 -0.999317,1.76038 v 1.48505 l 1.262149,-0.56526 c 0.694127,-0.31088 1.322256,-0.90729 1.395665,-1.3253 z m -1.15419,-5.82963 c 1.972931,-0.7549 2.593699,-2.93907 0.835328,-2.93907 -1.135872,0 -1.950517,0.46409 -1.950517,1.11129 0,0.32658 -0.158412,0.5938 -0.352071,0.5938 -0.193672,0 -0.260663,0.38363 -0.148913,0.85255 0.11174,0.46889 0.244068,0.85254 0.294105,0.85254 0.05,0 0.644943,-0.21201 1.322068,-0.47111 z m 7.967431,11.36983 c -0.27415,-0.78422 1.37225,-6.7362 3.64474,-13.17634 1.9082,-5.40783 2.25703,-5.82156 4.90795,-5.82156 1.46573,0 2.27639,0.839 2.88305,2.98391 0.42174,1.49108 2.78298,15.20102 2.78298,16.15866 0,0.35087 -0.74628,0.46764 -2.42715,0.37976 l -2.42722,-0.12688 -0.12143,-1.85606 -0.1214,-1.85607 -1.82037,0.29904 c -2.30379,0.37847 -2.266,0.3472 -2.57072,2.12956 -0.25557,1.49538 -0.25766,1.49666 -2.38635,1.49666 -1.49099,0 -2.19464,-0.18331 -2.34407,-0.61064 z m 12.33438,-2.34428 c -0.27833,-1.49375 -1.22246,-2.35502 -1.22246,-1.1152 0,0.6745 1.16082,2.93809 1.38214,2.69515 0.0616,-0.0675 -0.0109,-0.7785 -0.15968,-1.57995 z m -6.28301,-6.20994 c 0,-0.23444 -0.16943,-0.13847 -0.37644,0.21314 -0.20708,0.35167 -0.37651,0.83122 -0.37651,1.06567 0,0.23446 0.16943,0.13848 0.37651,-0.21313 0.20701,-0.35168 0.37644,-0.83124 0.37644,-1.06568 z m 2.29603,0.10663 c -0.0255,-0.52751 -0.1631,-1.53457 -0.30635,-2.23793 -0.25864,-1.26967 -0.26526,-1.26378 -0.92495,0.82191 -0.36548,1.15541 -0.66447,2.16248 -0.66447,2.23795 0,0.0755 0.43688,0.13726 0.97093,0.13726 0.76152,0 0.96096,-0.2068 0.92484,-0.95912 z m 7.18966,3.00765 c 0.1402,-3.35398 0.36037,-7.77657 0.48929,-9.82801 l 0.23447,-3.72988 h 2.1126 2.11263 l -0.27857,7.08079 -0.27842,7.0808 3.06733,-0.15388 3.06733,-0.15388 0.1166,2.45623 c 0.0824,1.73314 -0.0321,2.50739 -0.38832,2.63001 -0.27779,0.0956 -2.75609,0.29575 -5.50744,0.44484 L 119.55203,273 Z m 11.65071,0 c 0.14018,-3.35398 0.36046,-7.77657 0.48932,-9.82801 l 0.23443,-3.72988 h 2.11267 2.11259 l -0.27842,7.08079 -0.27853,7.0808 3.06732,-0.15388 3.06736,-0.15388 0.1167,2.45623 c 0.0822,1.73314 -0.032,2.50739 -0.38845,2.63001 -0.27767,0.0956 -2.75607,0.29575 -5.50742,0.44484 L 131.20281,273 Z m 27.26659,5.69626 c -0.32405,-0.57554 1.90008,-8.4895 3.93379,-13.99707 1.85837,-5.03293 2.04102,-5.23908 4.65158,-5.25127 1.69144,-0.007 2.69483,1.287 3.26376,4.21203 1.06221,5.46123 2.54342,14.77397 2.3972,15.071 -0.0866,0.17583 -1.1728,0.31971 -2.41364,0.31971 h -2.2561 l -0.21268,-1.7403 c -0.11699,-0.95717 -0.29895,-1.83507 -0.40449,-1.9509 -0.10555,-0.1158 -0.95036,-0.0466 -1.87739,0.15388 -1.46699,0.31726 -1.74223,0.55634 -2.12312,1.84433 -0.42229,1.42801 -0.51278,1.48423 -2.58715,1.60652 -1.18227,0.0698 -2.24952,-0.0509 -2.37176,-0.26798 z m 12.19573,-3.25927 c -0.2464,-0.81935 -0.56622,-1.56999 -0.7109,-1.6681 -0.49834,-0.33806 -0.23401,2.08664 0.33224,3.04804 0.74067,1.25759 0.94631,0.50811 0.37866,-1.37994 z m -5.97995,-5.59727 c 0.32206,-0.84592 0.51519,-1.61528 0.42916,-1.70968 -0.086,-0.0945 -0.4317,0.59771 -0.76827,1.53802 -0.76089,2.12605 -0.46237,2.27715 0.33911,0.17171 z m 2.09344,-0.34535 c 0,-2.65439 -0.46526,-3.1336 -1.02994,-1.06081 -0.66678,2.44782 -0.65974,2.51791 0.25327,2.51791 0.62521,0 0.77667,-0.28419 0.77667,-1.4571 z m 7.17165,5.8264 c 0.1101,-2.05144 0.30619,-6.16372 0.4356,-9.13843 l 0.23539,-5.40855 2.00116,-0.47834 c 5.43818,-1.29995 7.42783,-0.97344 8.74303,1.43473 1.58096,2.89489 1.30101,6.64096 -0.65669,8.78722 -0.98736,1.08236 -3.28437,2.21335 -5.59972,2.75713 -1.03176,0.24231 -1.068,0.34466 -1.068,3.01348 v 2.76265 h -2.14553 -2.1455 z m 1.32631,0.63941 c -0.0367,-2.12065 -0.10643,-2.4033 -0.34234,-1.3854 -0.44158,1.90448 -0.44158,4.04961 0,4.04961 0.22232,0 0.36869,-1.13863 0.34234,-2.66421 z m 5.47473,-7.7748 c 1.22208,-0.69368 1.74553,-1.89423 1.37889,-3.16236 -0.30474,-1.05377 -1.03893,-1.3414 -2.40572,-0.94254 -1.00749,0.29395 -1.11088,0.50874 -1.21828,2.53042 -0.13152,2.47414 0.22263,2.72246 2.24511,1.57448 z m 7.19048,2.02012 c 0.15249,-4.86485 0.39473,-8.98439 0.53814,-9.15455 0.49459,-0.58639 6.38473,-1.69827 7.72864,-1.45889 0.7407,0.1319 1.69862,0.58376 2.12885,1.00407 1.92402,1.87985 2.41961,6.10949 1.01262,8.64272 -1.11909,2.01519 -1.66565,2.41655 -4.70666,3.45669 -2.537,0.86771 -2.62145,0.94162 -2.62145,2.29377 0,0.76842 -0.10921,1.99658 -0.24275,2.72924 -0.23293,1.27819 -0.32101,1.33211 -2.17871,1.33211 h -1.9359 z m 0.93304,6.18096 -0.0402,-2.23794 -0.38798,1.60378 c -0.21335,0.88209 -0.28815,1.88915 -0.16617,2.23792 0.42072,1.20343 0.63426,0.62704 0.59421,-1.60376 z m 5.76855,-8.41423 c 0.95564,-0.63957 1.26214,-1.14407 1.26214,-2.07758 0,-1.58795 -0.65902,-2.14227 -2.233,-1.87839 -1.1133,0.18663 -1.26284,0.36939 -1.2676,1.54861 -0.003,0.73535 -0.11054,1.7686 -0.23942,2.29613 -0.30341,1.24272 0.71857,1.2886 2.47788,0.1113 z m -50.67731,10.16627 c 0.28014,-0.84928 5.11589,-9.35761 9.06555,-15.95062 5.27271,-8.80135 6.95884,-10.61757 9.59685,-10.33712 1.14581,0.12186 1.24607,0.25992 1.35336,1.86375 0.0957,1.43157 -0.15642,2.17982 -1.4531,4.31112 -2.02919,3.33548 -19.14635,21.88202 -18.56266,20.11287 z m 4.78171,-18.08745 c -0.33566,-0.36841 -0.61032,-0.85561 -0.61032,-1.08265 0,-0.8345 1.70984,-4.06883 3.40799,-6.44667 2.79022,-3.90689 5.11935,-5.51124 6.67464,-4.59761 1.91531,1.12512 0.27115,4.75857 -4.40584,9.73625 -2.93947,3.12862 -3.95691,3.60868 -5.06647,2.39068 z m 22.5618,-8.53817 c 1.45954,-0.84432 3.22815,-2.01048 3.93031,-2.59146 l 1.27666,-1.05631 -2.50232,-2.20414 c -3.00345,-2.64557 -3.70394,-3.78271 -2.9469,-4.78395 0.36537,-0.48323 0.8696,-0.61445 1.67867,-0.43687 1.58064,0.34702 5.08642,3.32844 6.3204,5.3751 0.91107,1.51109 0.96503,1.8121 0.53128,2.96167 -0.2657,0.70381 -1.04226,1.65907 -1.72592,2.12281 -1.45273,0.9855 -5.59213,2.13294 -7.7273,2.14198 l -1.48851,0.007 2.65363,-1.53514 z M 156.6167,229.47854 c -1.78144,-1.41643 -3.02673,-3.73473 -3.40652,-6.34194 -0.45503,-3.12345 2.31459,-6.80481 6.05618,-8.04992 3.3482,-1.11418 4.07352,-0.9177 1.87487,0.5079 -2.00289,1.29862 -4.2858,3.76126 -4.84437,5.22582 -0.85863,2.25127 -0.0348,3.69885 3.22079,5.65901 1.67939,1.01116 2.60646,2.52541 2.22108,3.62778 -0.41038,1.17391 -3.30126,0.81909 -5.12203,-0.62865 z m 9.9986,-0.82547 c -2.12356,-2.33088 -1.16897,-6.36477 1.70486,-7.20423 4.12861,-1.20601 7.13009,3.96651 4.18029,7.20423 -0.92948,1.02021 -1.46275,1.24604 -2.94259,1.24604 -1.47982,0 -2.01311,-0.22583 -2.94256,-1.24604 z m -2.17781,-9.84003 c -2.71297,-1.1998 -1.7565,-5.96486 1.19723,-5.96486 2.62624,0 3.86112,3.30387 1.99903,5.34779 -0.99704,1.09436 -1.77665,1.24488 -3.19626,0.61707 z m 2.51839,-1.3611 c 1.08931,-1.19571 0.26861,-3.32493 -1.28157,-3.32493 -1.63546,0 -2.31037,1.87908 -1.13737,3.1666 0.72684,0.79777 1.77397,0.8663 2.41894,0.15838 z"
       id="path7098" />
    <rect
       style="fill:none"
       id="rect6728"
       width="457.21924"
       height="207.21925"
       x="16.04278"
       y="118.98396" />
    <rect
       style="fill:none"
       id="rect6732"
       width="462.56683"
       height="161.09627"
       x="16.04278"
       y="165.10695" />
    <rect
       style="fill:none"
       id="rect6836"
       width="462.56683"
       height="161.09627"
       x="16.04278"
       y="165.10695" />
  </g>
</svg>
