<?xml version="1.0" encoding="UTF-8" standalone="no"?>
<!-- Created with Inkscape (http://www.inkscape.org/) -->

<svg
   version="1.1"
   id="svg9"
   width="38.26281"
   height="46.26722"
   viewBox="0 0 38.26281 46.267218"
   sodipodi:docname="handballico.svg"
   inkscape:version="1.1.2 (b8e25be833, 2022-02-05)"
   xmlns:inkscape="http://www.inkscape.org/namespaces/inkscape"
   xmlns:sodipodi="http://sodipodi.sourceforge.net/DTD/sodipodi-0.dtd"
   xmlns="http://www.w3.org/2000/svg"
   xmlns:svg="http://www.w3.org/2000/svg">
  <defs
     id="defs13">
    <clipPath
       clipPathUnits="userSpaceOnUse"
       id="clipPath569">
      <rect
         style="fill:none"
         id="rect571"
         width="133.68983"
         height="160.42781"
         x="195.18716"
         y="154.41176" />
    </clipPath>
  </defs>
  <sodipodi:namedview
     id="namedview11"
     pagecolor="#ffffff"
     bordercolor="#666666"
     borderopacity="1.0"
     inkscape:pageshadow="2"
     inkscape:pageopacity="0.0"
     inkscape:pagecheckerboard="0"
     showgrid="false"
     inkscape:zoom="8.4626539"
     inkscape:cx="16.484191"
     inkscape:cy="26.232905"
     inkscape:window-width="1920"
     inkscape:window-height="986"
     inkscape:window-x="-11"
     inkscape:window-y="-11"
     inkscape:window-maximized="1"
     inkscape:current-layer="g15"
     fit-margin-top="0"
     fit-margin-left="0"
     fit-margin-right="0"
     fit-margin-bottom="0"
     width="89.49497px" />
  <g
     inkscape:groupmode="layer"
     inkscape:label="Image"
     id="g15"
     transform="translate(-197.13069,-197.34076)">
    <path
       style="fill:#000000;stroke-width:0.369662;image-rendering:auto"
       d="m 197.38418,242.86473 c 0.27032,-0.40879 2.25979,-2.973 4.42099,-5.69825 9.27973,-11.70148 12.01022,-14.36946 14.70623,-14.36946 2.84427,0 2.99932,1.77999 0.43168,4.95499 -1.38748,1.71567 -18.95773,15.85597 -19.70208,15.85597 -0.19159,0 -0.12716,-0.33447 0.14318,-0.74325 z m 4.95794,-13.43304 c -1.49786,-0.75736 1.24436,-4.99189 5.19284,-8.01892 2.05988,-1.57914 3.52489,-2.02882 4.93644,-1.51522 0.90854,0.33054 1.03036,0.53796 0.81677,1.39083 -0.32976,1.31652 -1.69819,2.93263 -4.60917,5.44339 -3.10084,2.67448 -4.88428,3.43436 -6.33688,2.69992 z m 21.47986,-5.6069 c 0.006,-0.11109 0.89048,-0.55097 1.96495,-0.97759 2.68107,-1.06445 5.88349,-2.7074 5.88349,-3.0184 0,-0.14119 -0.69807,-0.66881 -1.55127,-1.17254 -2.75951,-1.62914 -4.24019,-2.90882 -4.24019,-3.66459 0,-1.03411 1.32156,-1.2693 3.19531,-0.56872 2.21629,0.82868 6.31923,4.16337 6.31923,5.13598 0,1.80449 -2.57044,3.25354 -6.83582,3.85366 -3.97019,0.55857 -4.74773,0.62627 -4.7357,0.4122 z M 212.33377,211.1967 c -2.79095,-0.64367 -5.48382,-3.69869 -5.48382,-6.2214 0,-2.2344 1.73707,-4.13418 5.01935,-5.48955 1.07157,-0.4425 4.90884,-1.18866 4.90884,-0.95454 0,0.0513 -1.22491,0.7915 -2.72206,1.64463 -2.90914,1.65768 -4.30635,3.10789 -4.30884,4.47231 -0.002,1.18425 0.76657,1.89816 3.34649,3.10764 2.64409,1.23957 3.5511,2.58771 2.25148,3.34654 -0.89372,0.52185 -1.12611,0.52914 -3.01144,0.0944 z m 9.95234,-0.77515 c -1.38058,-0.47949 -2.61224,-1.96727 -2.61224,-3.15548 0,-2.84325 4.55634,-4.36323 7.38398,-2.46326 0.68332,0.45912 1.36198,1.26972 1.50821,1.80134 0.37649,1.36879 -0.78119,3.13943 -2.47132,3.77987 -1.65378,0.62666 -2.09967,0.63106 -3.80863,0.0375 z m -4.18894,-8.77868 c -1.17599,-0.87488 -1.21556,-2.71241 -0.078,-3.62081 1.87057,-1.49371 4.96411,-0.36952 4.96411,1.80397 0,1.36932 -1.30356,2.49035 -2.89572,2.49035 -0.59674,0 -1.49244,-0.30309 -1.99038,-0.67351 z m 3.43976,-0.97948 c 1.44623,-1.27611 -0.71211,-3.0433 -2.51374,-2.0582 -0.80836,0.44202 -0.9501,1.31333 -0.32884,2.02161 0.77059,0.87852 1.87231,0.89271 2.84258,0.0367 z"
       id="path655" />
    <rect
       style="fill:none"
       id="rect459"
       width="147.05882"
       height="187.83423"
       x="151.06952"
       y="153.74332" />
    <rect
       style="fill:none"
       id="rect563"
       width="155.74866"
       height="212.56685"
       x="183.15508"
       y="122.3262" />
    <rect
       style="fill:none"
       id="rect565"
       width="8.0214052"
       height="33.422466"
       x="290.10696"
       y="308.15509" />
    <rect
       style="fill:none"
       id="rect573"
       width="20.721926"
       height="22.727272"
       x="256.68448"
       y="195.85562" />
  </g>
</svg>
